<svg  xmlns="http://www.w3.org/2000/svg" viewBox="0 0 480 480">
  <path style="fill:#FDBD40;" d="M152,52h176v400H152V52z"/>
  <path style="fill:#5A6470;" d="M216,356h48v96h-48V356z"/>
  <path style="fill:#A7C6D3;" d="M8,228h144v208H8V228z"/>
  <path style="fill:#CFDFE8;" d="M24,132h96v96H24V132z"/>
  <path style="fill:#A7C6D3;" d="M40,76h64v56H40V76z"/>
  <path style="fill:#5A6470;" d="M64,20h16v56H64V20z"/>
  <path style="fill:#E9686A;" d="M328,228h144v208H328V228z"/>
  <path style="fill:#F98C96;" d="M456,228h-96V76l96,32V228z"/>
  <g>
    <path style="fill:#5A6470;" d="M384,124h16v104h-16V124z"/>
    <path style="fill:#5A6470;" d="M416,124h16v104h-16V124z"/>
    <g>
      <path id="SVGCleanerId_0" style="fill:#5A6470;" d="M32,252h96v16H32V252z"/>
    </g>
    <g>
      <path id="SVGCleanerId_1" style="fill:#5A6470;" d="M32,284h96v16H32V284z"/>
    </g>
    <g>
      <path id="SVGCleanerId_2" style="fill:#5A6470;" d="M32,316h96v16H32V316z"/>
    </g>
    <g>
      <path id="SVGCleanerId_3" style="fill:#5A6470;" d="M32,348h96v16H32V348z"/>
    </g>
    <path style="fill:#5A6470;" d="M192,100h32v32h-32V100z"/>
    <path style="fill:#5A6470;" d="M256,100h32v32h-32V100z"/>
    <path style="fill:#5A6470;" d="M192,164h32v32h-32V164z"/>
    <path style="fill:#5A6470;" d="M256,164h32v32h-32V164z"/>
    <path style="fill:#5A6470;" d="M192,228h32v32h-32V228z"/>
    <path style="fill:#5A6470;" d="M256,228h32v32h-32V228z"/>
    <path style="fill:#5A6470;" d="M192,292h32v32h-32V292z"/>
    <path style="fill:#5A6470;" d="M256,292h32v32h-32V292z"/>
    <path style="fill:#5A6470;" d="M376,388h48v48h-48V388z"/>
    <g>
      <path id="SVGCleanerId_4" style="fill:#5A6470;" d="M352,252h16v16h-16V252z"/>
    </g>
    <g>
      <path id="SVGCleanerId_5" style="fill:#5A6470;" d="M384,252h32v16h-32V252z"/>
    </g>
    <g>
      <path id="SVGCleanerId_6" style="fill:#5A6470;" d="M432,252h16v16h-16V252z"/>
    </g>
    <g>
      <path id="SVGCleanerId_7" style="fill:#5A6470;" d="M352,284h16v16h-16V284z"/>
    </g>
    <g>
      <path id="SVGCleanerId_8" style="fill:#5A6470;" d="M384,284h32v16h-32V284z"/>
    </g>
    <g>
      <path id="SVGCleanerId_9" style="fill:#5A6470;" d="M432,284h16v16h-16V284z"/>
    </g>
    <g>
      <path id="SVGCleanerId_10" style="fill:#5A6470;" d="M352,316h16v16h-16V316z"/>
    </g>
    <g>
      <path id="SVGCleanerId_11" style="fill:#5A6470;" d="M384,316h32v16h-32V316z"/>
    </g>
    <g>
      <path id="SVGCleanerId_12" style="fill:#5A6470;" d="M432,316h16v16h-16V316z"/>
    </g>
    <g>
      <path id="SVGCleanerId_13" style="fill:#5A6470;" d="M352,348h16v16h-16V348z"/>
    </g>
    <g>
      <path id="SVGCleanerId_14" style="fill:#5A6470;" d="M384,348h32v16h-32V348z"/>
    </g>
    <g>
      <path id="SVGCleanerId_15" style="fill:#5A6470;" d="M432,348h16v16h-16V348z"/>
    </g>
  </g>
  <path d="M464,102.232L352,64.896V220h-16V44H144v176h-16v-96h-16V68H80V20H64v48H32v56H16v96H0v224h144v16h192v-16h144V220h-16
    V102.232z M368,87.104l80,26.664V220h-16v-96h-16v96h-16v-96h-16v96h-16V87.104z M48,84h48v40H48V84z M32,140h80v80H32V140z M16,428
    V236h128v192H16z M224,444v-80h32v80H224z M272,444v-96h-64v96h-48V60h160v384H272z M384,428v-32h32v32H384z M464,428h-32v-48h-64
    v48h-32V236h128V428z"/>
  <path id="SVGCleanerId_0_1_" d="M32,252h96v16H32V252z"/>
  <path id="SVGCleanerId_1_1_" d="M32,284h96v16H32V284z"/>
  <path id="SVGCleanerId_2_1_" d="M32,316h96v16H32V316z"/>
  <path id="SVGCleanerId_3_1_" d="M32,348h96v16H32V348z"/>
  <path d="M184,140h48V92h-48V140z M200,108h16v16h-16V108z"/>
  <path d="M248,140h48V92h-48V140z M264,108h16v16h-16V108z"/>
  <path d="M184,204h48v-48h-48V204z M200,172h16v16h-16V172z"/>
  <path d="M248,204h48v-48h-48V204z M264,172h16v16h-16V172z"/>
  <path d="M184,268h48v-48h-48V268z M200,236h16v16h-16V236z"/>
  <path d="M248,268h48v-48h-48V268z M264,236h16v16h-16V236z"/>
  <path d="M184,332h48v-48h-48V332z M200,300h16v16h-16V300z"/>
  <path d="M248,332h48v-48h-48V332z M264,300h16v16h-16V300z"/>
  <path id="SVGCleanerId_4_1_" d="M352,252h16v16h-16V252z"/>
  <path id="SVGCleanerId_5_1_" d="M384,252h32v16h-32V252z"/>
  <path id="SVGCleanerId_6_1_" d="M432,252h16v16h-16V252z"/>
  <path id="SVGCleanerId_7_1_" d="M352,284h16v16h-16V284z"/>
  <path id="SVGCleanerId_8_1_" d="M384,284h32v16h-32V284z"/>
  <path id="SVGCleanerId_9_1_" d="M432,284h16v16h-16V284z"/>
  <path id="SVGCleanerId_10_1_" d="M352,316h16v16h-16V316z"/>
  <path id="SVGCleanerId_11_1_" d="M384,316h32v16h-32V316z"/>
  <path id="SVGCleanerId_12_1_" d="M432,316h16v16h-16V316z"/>
  <path id="SVGCleanerId_13_1_" d="M352,348h16v16h-16V348z"/>
  <path id="SVGCleanerId_14_1_" d="M384,348h32v16h-32V348z"/>
  <path id="SVGCleanerId_15_1_" d="M432,348h16v16h-16V348z"/>
</svg>
